<svg width="47" height="47" viewBox="0 0 47 47" fill="none" xmlns="http://www.w3.org/2000/svg">
<path d="M23.5 3.9165C20.9283 3.9165 18.3818 4.42304 16.0058 5.4072C13.6298 6.39135 11.471 7.83385 9.65251 9.65233C5.97993 13.3249 3.91669 18.306 3.91669 23.4998C3.91669 32.1557 9.5371 39.4994 17.3117 42.104C18.2909 42.2607 18.6042 41.6536 18.6042 41.1248V37.8153C13.1796 38.9903 12.0242 35.1911 12.0242 35.1911C11.1234 32.9194 9.85044 32.3123 9.85044 32.3123C8.06835 31.0982 9.98752 31.1373 9.98752 31.1373C11.9459 31.2744 12.9838 33.1544 12.9838 33.1544C14.6875 36.1311 17.5663 35.2498 18.6825 34.7798C18.8588 33.5069 19.3679 32.6453 19.9163 32.1557C15.5688 31.6661 11.0059 29.9819 11.0059 22.5207C11.0059 20.3469 11.75 18.604 13.0229 17.2136C12.8271 16.724 12.1417 14.6873 13.2188 12.0436C13.2188 12.0436 14.8638 11.5148 18.6042 14.0411C20.1513 13.6103 21.8354 13.3948 23.5 13.3948C25.1646 13.3948 26.8488 13.6103 28.3959 14.0411C32.1363 11.5148 33.7813 12.0436 33.7813 12.0436C34.8584 14.6873 34.1729 16.724 33.9771 17.2136C35.25 18.604 35.9942 20.3469 35.9942 22.5207C35.9942 30.0015 31.4117 31.6465 27.0446 32.1361C27.7496 32.7432 28.3959 33.9378 28.3959 35.759V41.1248C28.3959 41.6536 28.7092 42.2803 29.7079 42.104C37.4825 39.4798 43.0834 32.1557 43.0834 23.4998C43.0834 20.9281 42.5768 18.3816 41.5927 16.0056C40.6085 13.6297 39.166 11.4708 37.3475 9.65233C35.529 7.83385 33.3702 6.39135 30.9942 5.4072C28.6183 4.42304 26.0717 3.9165 23.5 3.9165Z" fill="white"/>
</svg>
