<svg width="52" height="52" viewBox="0 0 52 52" fill="none" xmlns="http://www.w3.org/2000/svg">
<path d="M41.1667 6.5C42.3159 6.5 43.4181 6.95655 44.2308 7.7692C45.0435 8.58186 45.5 9.68406 45.5 10.8333V41.1667C45.5 42.3159 45.0435 43.4181 44.2308 44.2308C43.4181 45.0435 42.3159 45.5 41.1667 45.5H10.8333C9.68406 45.5 8.58186 45.0435 7.7692 44.2308C6.95655 43.4181 6.5 42.3159 6.5 41.1667V10.8333C6.5 9.68406 6.95655 8.58186 7.7692 7.7692C8.58186 6.95655 9.68406 6.5 10.8333 6.5H41.1667ZM40.0833 40.0833V28.6C40.0833 26.7267 39.3392 24.9301 38.0145 23.6055C36.6899 22.2808 34.8933 21.5367 33.02 21.5367C31.1783 21.5367 29.0333 22.6633 27.9933 24.3533V21.9483H21.9483V40.0833H27.9933V29.4017C27.9933 27.7333 29.3367 26.3683 31.005 26.3683C31.8095 26.3683 32.581 26.6879 33.1499 27.2568C33.7188 27.8256 34.0383 28.5972 34.0383 29.4017V40.0833H40.0833ZM14.9067 18.5467C15.8721 18.5467 16.7979 18.1632 17.4805 17.4805C18.1632 16.7979 18.5467 15.8721 18.5467 14.9067C18.5467 12.8917 16.9217 11.245 14.9067 11.245C13.9355 11.245 13.0042 11.6308 12.3175 12.3175C11.6308 13.0042 11.245 13.9355 11.245 14.9067C11.245 16.9217 12.8917 18.5467 14.9067 18.5467ZM17.9183 40.0833V21.9483H11.9167V40.0833H17.9183Z" fill="white"/>
</svg>
